<svg width="32" height="23" viewBox="0 0 32 23" fill="none" xmlns="http://www.w3.org/2000/svg">
<path d="M29.1875 0H2.8125C1.26488 0 0 1.25931 0 2.8125V19.6875C0 21.2412 1.26569 22.5 2.8125 22.5H29.1875C30.7351 22.5 32 21.2407 32 19.6875V2.8125C32 1.25894 30.7345 0 29.1875 0ZM28.7556 1.875C27.8463 2.78731 17.1653 13.5031 16.7265 13.9434C16.36 14.311 15.6402 14.3112 15.2735 13.9434L3.24437 1.875H28.7556ZM1.875 19.3428V3.15719L9.94156 11.25L1.875 19.3428ZM3.24437 20.625L11.2653 12.578L13.9456 15.2671C15.0439 16.369 16.9565 16.3686 18.0545 15.2671L20.7348 12.5781L28.7556 20.625H3.24437ZM30.125 19.3428L22.0584 11.25L30.125 3.15719V19.3428Z" fill="#B4BFC9"/>
</svg>
